HIERARCHY
ROOT hip
{
  OFFSET 0 0 0
  CHANNELS 6 Xposition Yposition Zposition Zrotation Yrotation Xrotation
  JOINT abdomen
  {
    OFFSET 0 20.6881 -0.73152
    CHANNELS 3 Zrotation Xrotation Yrotation
    JOINT chest
    {
      OFFSET 0 11.7043 -0.48768
      CHANNELS 3 Zrotation Xrotation Yrotation
      JOINT neck
      {
        OFFSET 0 22.1894 -2.19456
        CHANNELS 3 Zrotation Xrotation Yrotation
        JOINT head
        {
          OFFSET -0.24384 7.07133 1.2192
          CHANNELS 3 Zrotation Xrotation Yrotation
          JOINT leftEye
          {
            OFFSET 4.14528 8.04674 8.04672
            CHANNELS 3 Zrotation Xrotation Yrotation
            End Site
            {
              OFFSET 1 0 0
            }
          }
          JOINT rightEye
          {
            OFFSET -3.6576 8.04674 8.04672
            CHANNELS 3 Zrotation Xrotation Yrotation
            End Site
            {
              OFFSET 1 0 0
            }
          }
        }
      }
      JOINT rCollar
      {
        OFFSET -2.68224 19.2634 -4.8768
        CHANNELS 3 Zrotation Xrotation Yrotation
        JOINT rShldr
        {
          OFFSET -8.77824 -1.95073 1.46304
          CHANNELS 3 Zrotation Xrotation Yrotation
          JOINT rForeArm
          {
            OFFSET -28.1742 -1.7115 0.48768
            CHANNELS 3 Zrotation Xrotation Yrotation
            JOINT rHand
            {
              OFFSET -22.5879 0.773209 7.07136
              CHANNELS 3 Zrotation Xrotation Yrotation
              JOINT rThumb1
              {
                OFFSET -1.2192 -0.487915 3.41376
                CHANNELS 3 Zrotation Xrotation Yrotation
                JOINT rThumb2
                {
                  OFFSET -3.37035 -0.52449 3.41376
                  CHANNELS 3 Zrotation Xrotation Yrotation
                  End Site
                  {
                    OFFSET -1.78271 -1.18214 1.43049
                  }
                }
              }
              JOINT rIndex1
              {
                OFFSET -7.75947 0.938293 5.60832
                CHANNELS 3 Zrotation Xrotation Yrotation
                JOINT rIndex2
                {
                  OFFSET -2.54057 -0.884171 1.56538
                  CHANNELS 3 Zrotation Xrotation Yrotation
                  End Site
                  {
                    OFFSET -1.62519 -0.234802 1.16502
                  }
                }
              }
              JOINT rMid1
              {
                OFFSET -8.24714 1.18213 3.41376
                CHANNELS 3 Zrotation Xrotation Yrotation
                JOINT rMid2
                {
                  OFFSET -3.10165 -0.590103 1.0647
                  CHANNELS 3 Zrotation Xrotation Yrotation
                  End Site
                  {
                    OFFSET -2.48547 -0.328903 0.83742
                  }
                }
              }
              JOINT rRing1
              {
                OFFSET -8.82822 0.546677 1.51678
                CHANNELS 3 Zrotation Xrotation Yrotation
                JOINT rRing2
                {
                  OFFSET -2.60934 -0.819778 -0.0198488
                  CHANNELS 3 Zrotation Xrotation Yrotation
                  End Site
                  {
                    OFFSET -2.33842 -0.294052 0.168128
                  }
                }
              }
              JOINT rPinky1
              {
                OFFSET -8.27202 -0.0477905 -0.4584
                CHANNELS 3 Zrotation Xrotation Yrotation
                JOINT rPinky2
                {
                  OFFSET -1.82734 -0.647385 -0.700984
                  CHANNELS 3 Zrotation Xrotation Yrotation
                  End Site
                  {
                    OFFSET -1.69225 -0.51767 -0.607171
                  }
                }
              }
            }
          }
        }
      }
      JOINT lCollar
      {
        OFFSET 2.68224 19.2634 -4.8768
        CHANNELS 3 Zrotation Xrotation Yrotation
        JOINT lShldr
        {
          OFFSET 8.77824 -1.95073 1.46304
          CHANNELS 3 Zrotation Xrotation Yrotation
          JOINT lForeArm
          {
            OFFSET 28.1742 -1.7115 0.48768
            CHANNELS 3 Zrotation Xrotation Yrotation
            JOINT lHand
            {
              OFFSET 22.5879 0.773209 7.07136
              CHANNELS 3 Zrotation Xrotation Yrotation
              JOINT lThumb1
              {
                OFFSET 1.2192 -0.487915 3.41376
                CHANNELS 3 Zrotation Xrotation Yrotation
                JOINT lThumb2
                {
                  OFFSET 3.37035 -0.52449 3.41376
                  CHANNELS 3 Zrotation Xrotation Yrotation
                  End Site
                  {
                    OFFSET 1.78271 -1.18214 1.43049
                  }
                }
              }
              JOINT lIndex1
              {
                OFFSET 7.75947 0.938293 5.60832
                CHANNELS 3 Zrotation Xrotation Yrotation
                JOINT lIndex2
                {
                  OFFSET 2.54057 -0.884171 1.56538
                  CHANNELS 3 Zrotation Xrotation Yrotation
                  End Site
                  {
                    OFFSET 1.62519 -0.234802 1.16502
                  }
                }
              }
              JOINT lMid1
              {
                OFFSET 8.24714 1.18213 3.41376
                CHANNELS 3 Zrotation Xrotation Yrotation
                JOINT lMid2
                {
                  OFFSET 3.10165 -0.590103 1.0647
                  CHANNELS 3 Zrotation Xrotation Yrotation
                  End Site
                  {
                    OFFSET 2.48547 -0.328903 0.83742
                  }
                }
              }
              JOINT lRing1
              {
                OFFSET 8.82822 0.546677 1.51678
                CHANNELS 3 Zrotation Xrotation Yrotation
                JOINT lRing2
                {
                  OFFSET 2.60934 -0.819778 -0.0198488
                  CHANNELS 3 Zrotation Xrotation Yrotation
                  End Site
                  {
                    OFFSET 2.33842 -0.294052 0.168128
                  }
                }
              }
              JOINT lPinky1
              {
                OFFSET 8.27202 -0.0477905 -0.4584
                CHANNELS 3 Zrotation Xrotation Yrotation
                JOINT lPinky2
                {
                  OFFSET 1.82734 -0.647385 -0.700984
                  CHANNELS 3 Zrotation Xrotation Yrotation
                  End Site
                  {
                    OFFSET 1.69225 -0.51767 -0.607171
                  }
                }
              }
            }
          }
        }
      }
    }
  }
  JOINT rButtock
  {
    OFFSET -8.77824 4.35084 1.2192
    CHANNELS 3 Zrotation Xrotation Yrotation
    JOINT rThigh
    {
      OFFSET 0 -1.70687 -2.19456
      CHANNELS 3 Zrotation Xrotation Yrotation
      JOINT rShin
      {
        OFFSET 0 -36.8199 0.73152
        CHANNELS 3 Zrotation Xrotation Yrotation
        JOINT rFoot
        {
          OFFSET 0.73152 -45.1104 -5.12064
          CHANNELS 3 Zrotation Xrotation Yrotation
          End Site
          {
            OFFSET -1.1221 -3.69964 12.103
          }
        }
      }
    }
  }
  JOINT lButtock
  {
    OFFSET 8.77824 4.35084 1.2192
    CHANNELS 3 Zrotation Xrotation Yrotation
    JOINT lThigh
    {
      OFFSET 0 -1.70687 -2.19456
      CHANNELS 3 Zrotation Xrotation Yrotation
      JOINT lShin
      {
        OFFSET 0 -36.8199 0.73152
        CHANNELS 3 Zrotation Xrotation Yrotation
        JOINT lFoot
        {
          OFFSET -0.73152 -45.1104 -5.12064
          CHANNELS 3 Zrotation Xrotation Yrotation
          End Site
          {
            OFFSET 1.1221 -3.69964 12.103
          }
        }
      }
    }
  }
}
MOTION
Frames:	9
Frame Time:	0.00833333
-19.5596 83.8967 31.2506 -39.6874 -77.7636 49.0644 9.02299 -2.75819 9.51542 -0.184885 -0.292773 2.57799 -11.183 1.85029 -9.359 14.839 -15.4725 -13.9282 -0.0 0.0 0.0 -0.0 0.0 0.0 6.39442e-14 6.56392e-13 4.32481e-14 81.9502 -1.11472 -0.428313 -7.81637 -2.91592 13.7666 -1.67549 34.1358 5.46514 1.04033e-09 2.15727e-10 -1.78378e-09 1.77979e-09 3.61146e-10 -3.06559e-09 1.04034e-09 2.15728e-10 -1.78379e-09 7.73091 5.47488 0.417314 1.04033e-09 2.15723e-10 -1.78378e-09 2.90554 0.965183 0.102902 1.04033e-09 2.15723e-10 -1.78378e-09 10.2786 0.731801 0.0259123 1.04033e-09 2.15725e-10 -1.78377e-09 2.22167 -0.733487 -0.20892 6.39127e-14 6.56391e-13 4.30276e-14 -87.5679 6.04894 12.2374 14.6653 -7.50376 -26.9027 0.993511 27.0886 -4.12221 -1.69466e-10 -2.76679e-10 6.53142e-10 -2.82394e-10 -4.76156e-10 1.13128e-09 -1.69473e-10 -2.76673e-10 6.53154e-10 -7.73091 5.47488 -0.417314 -1.69465e-10 -2.76678e-10 6.53148e-10 -2.90554 0.965183 -0.102902 -1.6947e-10 -2.7668e-10 6.53138e-10 -10.2786 0.731801 -0.0259123 -1.69466e-10 -2.76681e-10 6.53134e-10 -2.22167 -0.733487 0.20892 -2.03217e-16 0.0 -3.88251e-19 14.2606 -5.59286 1.73231 -0.0543589 15.7599 0.265827 -2.90374 -6.84422 -12.7397 2.03217e-16 0.0 3.88251e-19 10.8805 -37.237 -1.03056 0.175632 28.956 -0.284212 0.873942 -1.19685 3.48689
-20.4357 83.8121 31.2582 -41.1595 -78.1277 50.6523 8.95741 -2.78909 9.41687 -0.185271 -0.277894 2.5463 -11.0348 1.68895 -9.16287 14.6496 -15.3851 -13.58 -0.0 0.0 0.0 -0.0 0.0 0.0 2.26531e-13 1.04562e-12 8.36705e-14 82.2855 -3.41299 -1.52645 -7.49495 -2.75328 13.1796 -1.94787 36.3502 5.93542 -6.42439e-09 -2.23898e-09 1.19434e-09 -1.10254e-08 -3.88692e-09 2.27163e-09 -6.42438e-09 -2.23898e-09 1.19432e-09 7.73091 5.47488 0.417314 -6.42439e-09 -2.23899e-09 1.19434e-09 2.90554 0.965183 0.102902 -6.42438e-09 -2.23899e-09 1.19434e-09 10.2786 0.731801 0.0259123 -6.42439e-09 -2.23899e-09 1.19434e-09 2.22167 -0.733487 -0.20892 2.26499e-13 1.04562e-12 8.34612e-14 -87.432 5.74705 12.3121 14.6473 -7.48862 -26.8661 1.00592 27.2411 -4.14935 4.80554e-10 -3.65487e-09 -5.26834e-09 7.17488e-10 -6.29378e-09 -9.111e-09 4.80546e-10 -3.65486e-09 -5.26833e-09 -7.73091 5.47488 -0.417314 4.80555e-10 -3.65487e-09 -5.26834e-09 -2.90554 0.965183 -0.102902 4.80548e-10 -3.65487e-09 -5.26834e-09 -10.2786 0.731801 -0.0259123 4.80554e-10 -3.65487e-09 -5.26835e-09 -2.22167 -0.733487 0.20892 -2.03217e-16 0.0 -3.88251e-19 14.1406 -5.29554 1.70726 -0.0597001 16.0643 0.262956 -2.86194 -6.98427 -12.3322 2.03217e-16 0.0 3.88251e-19 10.7195 -37.4945 -1.25775 0.163233 27.877 -0.244237 0.87141 -1.10459 3.58669
-21.3141 83.7216 31.2684 -42.7191 -78.4921 52.3168 8.88136 -2.8106 9.30608 -0.181914 -0.26197 2.5115 -10.8756 1.53229 -8.95843 14.4604 -15.2963 -13.2197 -0.0 0.0 0.0 -0.0 0.0 0.0 3.51282e-13 1.49379e-12 1.08238e-13 82.4948 -5.64824 -2.59808 -7.20497 -2.60827 12.6544 -2.24329 38.4983 6.4182 -1.08579e-08 -3.60956e-09 2.69097e-09 -1.86423e-08 -6.26306e-09 4.97251e-09 -1.08579e-08 -3.60956e-09 2.69095e-09 7.73091 5.47488 0.417314 -1.08579e-08 -3.60957e-09 2.69097e-09 2.90554 0.965183 0.102902 -1.08579e-08 -3.60957e-09 2.69097e-09 10.2786 0.731801 0.0259123 -1.08579e-08 -3.60957e-09 2.69097e-09 2.22167 -0.733487 -0.20892 3.51246e-13 1.49379e-12 1.08039e-13 -87.2587 5.40318 12.3709 14.615 -7.4615 -26.7998 1.02188 27.4371 -4.1843 6.72478e-10 -5.70335e-09 -8.89973e-09 9.73694e-10 -9.81667e-09 -1.53869e-08 6.7247e-10 -5.70334e-09 -8.89971e-09 -7.73091 5.47488 -0.417314 6.72479e-10 -5.70335e-09 -8.89973e-09 -2.90554 0.965183 -0.102902 6.72471e-10 -5.70335e-09 -8.89973e-09 -10.2786 0.731801 -0.0259123 6.72478e-10 -5.70335e-09 -8.89974e-09 -2.22167 -0.733487 0.20892 -2.03217e-16 0.0 -3.88251e-19 13.9949 -5.04345 1.66714 -0.0656809 16.4545 0.261279 -2.80566 -7.08822 -11.9037 2.03217e-16 0.0 3.88251e-19 10.5498 -37.7279 -1.523 0.152563 26.9006 -0.206529 0.868659 -1.0007 3.71107
-22.197 83.6251 31.2817 -44.3834 -78.8573 54.0747 8.79822 -2.82263 9.18211 -0.174989 -0.244786 2.47332 -10.7045 1.3798 -8.7452 14.2709 -15.2066 -12.8466 -0.0 0.0 0.0 -0.0 0.0 0.0 4.42546e-13 2.20766e-12 1.10251e-13 82.5829 -7.85511 -3.65351 -6.94955 -2.48272 12.1941 -2.56372 40.6205 6.92188 -1.08194e-08 -3.31607e-09 1.77239e-09 -1.86139e-08 -5.76899e-09 3.38889e-09 -1.08194e-08 -3.31607e-09 1.77237e-09 7.73091 5.47488 0.417314 -1.08194e-08 -3.31608e-09 1.77239e-09 2.90554 0.965183 0.102902 -1.08194e-08 -3.31608e-09 1.77239e-09 10.2786 0.731801 0.0259123 -1.08194e-08 -3.31608e-09 1.77239e-09 2.22167 -0.733487 -0.20892 4.425e-13 2.20766e-12 1.10066e-13 -87.0472 5.01605 12.414 14.5675 -7.42156 -26.7029 1.04175 27.6771 -4.22731 6.01629e-11 -5.84549e-09 -9.23947e-09 -9.0831e-11 -1.00463e-08 -1.5958e-08 6.01566e-11 -5.84549e-09 -9.23946e-09 -7.73091 5.47488 -0.417314 6.01669e-11 -5.84549e-09 -9.23947e-09 -2.90554 0.965183 -0.102902 6.01565e-11 -5.84549e-09 -9.23947e-09 -10.2786 0.731801 -0.0259123 6.01652e-11 -5.84549e-09 -9.23948e-09 -2.22167 -0.733487 0.20892 -2.03217e-16 0.0 -3.88251e-19 13.8265 -4.83604 1.61024 -0.0725257 16.9312 0.260882 -2.7357 -7.16274 -11.4485 2.03217e-16 0.0 3.88251e-19 10.3739 -37.9381 -1.83625 0.142967 26.0276 -0.170584 0.86567 -0.882544 3.86615
-23.0835 83.524 31.2992 -46.1557 -79.2254 55.9286 8.70683 -2.82512 9.04377 -0.164279 -0.226574 2.43146 -10.5216 1.23046 -8.52314 14.0803 -15.1174 -12.4601 -0.0 0.0 0.0 -0.0 0.0 0.0 5.23429e-13 3.12992e-12 9.71746e-14 82.5487 -10.0569 -4.69971 -6.72844 -2.3776 11.7947 -2.91827 42.7403 7.45799 -8.25671e-09 -2.05825e-09 -5.70552e-10 -1.42736e-08 -3.61245e-09 -7.19327e-10 -8.2567e-09 -2.05824e-09 -5.70568e-10 7.73091 5.47488 0.417314 -8.25671e-09 -2.05825e-09 -5.70557e-10 2.90554 0.965183 0.102902 -8.2567e-09 -2.05825e-09 -5.70559e-10 10.2786 0.731801 0.0259123 -8.25671e-09 -2.05824e-09 -5.70555e-10 2.22167 -0.733487 -0.20892 5.23365e-13 3.12992e-12 9.701e-14 -86.798 4.58581 12.442 14.505 -7.36913 -26.5761 1.06549 27.9578 -4.27795 -1.06133e-09 -4.93614e-09 -7.77759e-09 -1.99736e-09 -8.458e-09 -1.34048e-08 -1.06133e-09 -4.93614e-09 -7.77758e-09 -7.73091 5.47488 -0.417314 -1.06132e-09 -4.93615e-09 -7.77761e-09 -2.90554 0.965183 -0.102902 -1.06134e-09 -4.93614e-09 -7.7776e-09 -10.2786 0.731801 -0.0259123 -1.06133e-09 -4.93614e-09 -7.7776e-09 -2.22167 -0.733487 0.20892 -2.03217e-16 0.0 -3.88251e-19 13.6354 -4.67143 1.53794 -0.0801777 17.4901 0.261472 -2.65471 -7.21271 -10.9712 2.03217e-16 0.0 3.88251e-19 10.1879 -38.1253 -2.1998 0.134132 25.2475 -0.135778 0.861355 -0.743384 4.04631
-23.9745 83.4182 31.3199 -48.0508 -79.5968 57.8929 8.60068 -2.81832 8.89407 -0.149534 -0.207644 2.38677 -10.3286 1.08617 -8.29334 13.8903 -15.0262 -12.0625 -0.0 0.0 0.0 -0.0 0.0 0.0 5.66817e-13 3.83836e-12 7.84858e-14 82.4051 -12.1511 -5.7237 -6.53844 -2.28926 11.4515 -3.29549 44.7489 8.00417 -4.95069e-09 -6.16138e-10 -2.98011e-09 -8.64974e-09 -1.13379e-09 -4.9637e-09 -4.95069e-09 -6.1613e-10 -2.98012e-09 7.73091 5.47488 0.417314 -4.95069e-09 -6.16132e-10 -2.98012e-09 2.90554 0.965183 0.102902 -4.95068e-09 -6.16131e-10 -2.98012e-09 10.2786 0.731801 0.0259123 -4.95069e-09 -6.16132e-10 -2.98012e-09 2.22167 -0.733487 -0.20892 5.6674e-13 3.83835e-12 7.83371e-14 -86.5135 4.11508 12.455 14.4289 -7.30559 -26.4216 1.09316 28.2808 -4.33653 -2.13448e-09 -3.6316e-09 -5.65007e-09 -3.80656e-09 -6.19189e-09 -9.70344e-09 -2.13448e-09 -3.63159e-09 -5.65006e-09 -7.73091 5.47488 -0.417314 -2.13446e-09 -3.63161e-09 -5.65009e-09 -2.90554 0.965183 -0.102902 -2.13448e-09 -3.6316e-09 -5.65007e-09 -10.2786 0.731801 -0.0259123 -2.13447e-09 -3.6316e-09 -5.65008e-09 -2.22167 -0.733487 0.20892 -2.03217e-16 0.0 -3.88251e-19 13.4155 -4.55227 1.453 -0.0882703 18.1326 0.263141 -2.56183 -7.2186 -10.4813 2.03217e-16 0.0 3.88251e-19 9.98894 -38.2863 -2.58977 0.126484 24.567 -0.10295 0.855606 -0.594239 4.24201
-24.8697 83.3084 31.3457 -50.0731 -79.9732 59.9718 8.47323 -2.80245 8.73601 -0.130508 -0.188307 2.34013 -10.1269 0.948842 -8.05691 13.7021 -14.9309 -11.6561 -0.0 0.0 0.0 -0.0 0.0 0.0 5.45597e-13 3.91077e-12 6.36608e-14 82.1743 -14.0364 -6.70865 -6.37609 -2.214 11.1598 -3.67306 46.5388 8.52844 -2.68219e-09 2.30193e-10 -4.09854e-09 -4.77038e-09 3.26681e-10 -6.9558e-09 -2.68219e-09 2.30203e-10 -4.09855e-09 7.73091 5.47488 0.417314 -2.68219e-09 2.30201e-10 -4.09855e-09 2.90554 0.965183 0.102902 -2.68218e-09 2.30203e-10 -4.09855e-09 10.2786 0.731801 0.0259123 -2.68219e-09 2.30201e-10 -4.09855e-09 2.22167 -0.733487 -0.20892 5.45519e-13 3.91076e-12 6.35117e-14 -86.1964 3.60643 12.4528 14.3402 -7.23229 -26.2412 1.12488 28.6478 -4.40337 -2.60175e-09 -2.58815e-09 -3.99288e-09 -4.57911e-09 -4.38821e-09 -6.82966e-09 -2.60175e-09 -2.58815e-09 -3.99287e-09 -7.73091 5.47488 -0.417314 -2.60174e-09 -2.58816e-09 -3.9929e-09 -2.90554 0.965183 -0.102902 -2.60175e-09 -2.58815e-09 -3.99288e-09 -10.2786 0.731801 -0.0259123 -2.60174e-09 -2.58815e-09 -3.99288e-09 -2.22167 -0.733487 0.20892 -2.03217e-16 0.0 -3.88251e-19 13.1605 -4.48118 1.35818 -0.0964509 18.8606 0.26599 -2.45692 -7.16075 -9.98862 2.03217e-16 0.0 3.88251e-19 9.77452 -38.4185 -2.98196 0.120409 23.9926 -0.0729327 0.848536 -0.446118 4.44368
-25.7703 83.1958 31.3758 -52.2342 -80.3534 62.1751 8.32328 -2.77736 8.56875 -0.106445 -0.168418 2.29132 -9.91561 0.817881 -7.8132 13.5155 -14.8311 -11.2401 -0.0 0.0 0.0 -0.0 0.0 0.0 4.2291e-13 3.02116e-12 5.14161e-14 81.8696 -15.7222 -7.65523 -6.24381 -2.15286 10.9232 -4.03738 48.1226 9.02118 -1.97715e-09 1.6076e-10 -3.22285e-09 -3.51728e-09 2.21625e-10 -5.46951e-09 -1.97715e-09 1.60768e-10 -3.22286e-09 7.73091 5.47488 0.417314 -1.97716e-09 1.60766e-10 -3.22286e-09 2.90554 0.965183 0.102902 -1.97715e-09 1.60768e-10 -3.22286e-09 10.2786 0.731801 0.0259123 -1.97715e-09 1.60766e-10 -3.22285e-09 2.22167 -0.733487 -0.20892 4.22854e-13 3.02116e-12 5.12391e-14 -85.8456 3.05827 12.4361 14.2378 -7.14813 -26.0335 1.16126 29.0593 -4.47893 -2.10621e-09 -1.93332e-09 -3.02181e-09 -3.70337e-09 -3.27371e-09 -5.16507e-09 -2.10621e-09 -1.93332e-09 -3.0218e-09 -7.73091 5.47488 -0.417314 -2.1062e-09 -1.93333e-09 -3.02183e-09 -2.90554 0.965183 -0.102902 -2.10621e-09 -1.93332e-09 -3.02181e-09 -10.2786 0.731801 -0.0259123 -2.1062e-09 -1.93332e-09 -3.02181e-09 -2.22167 -0.733487 0.20892 -2.03217e-16 0.0 -3.88251e-19 12.8684 -4.45743 1.25253 -0.104672 19.6759 0.269923 -2.33945 -7.03785 -9.4831 2.03217e-16 0.0 3.88251e-19 9.54406 -38.5222 -3.38715 0.115486 23.5273 -0.0454777 0.840133 -0.294772 4.6596
-26.6767 83.0811 31.4112 -54.5716 -80.738 64.5395 8.15427 -2.74296 8.39126 -0.0776996 -0.147887 2.24005 -9.69441 0.692649 -7.56192 13.3296 -14.7278 -10.8136 -0.0 0.0 0.0 -0.0 0.0 0.0 2.23094e-13 1.46584e-12 3.79679e-14 81.4975 -17.2509 -8.56815 -6.14308 -2.10738 10.7426 -4.3869 49.5455 9.48689 -1.86878e-09 -3.71082e-10 -1.19081e-09 -3.25068e-09 -6.7081e-10 -1.97506e-09 -1.86878e-09 -3.71078e-10 -1.19082e-09 7.73091 5.47488 0.417314 -1.86878e-09 -3.7108e-10 -1.19082e-09 2.90554 0.965183 0.102902 -1.86877e-09 -3.71079e-10 -1.19082e-09 10.2786 0.731801 0.0259123 -1.86878e-09 -3.71079e-10 -1.19082e-09 2.22167 -0.733487 -0.20892 2.23074e-13 1.46585e-12 3.77442e-14 -85.461 2.46984 12.405 14.1211 -7.0526 -25.7982 1.20271 29.5144 -4.56338 -1.01463e-09 -1.33291e-09 -2.16005e-09 -1.80072e-09 -2.26604e-09 -3.7043e-09 -1.01462e-09 -1.33291e-09 -2.16004e-09 -7.73091 5.47488 -0.417314 -1.01462e-09 -1.33291e-09 -2.16006e-09 -2.90554 0.965183 -0.102902 -1.01463e-09 -1.33291e-09 -2.16005e-09 -10.2786 0.731801 -0.0259123 -1.01462e-09 -1.33291e-09 -2.16006e-09 -2.22167 -0.733487 0.20892 -2.03217e-16 0.0 -3.88251e-19 12.5424 -4.4801 1.13509 -0.113216 20.5773 0.274994 -2.2124 -6.85854 -8.96415 2.03217e-16 0.0 3.88251e-19 9.29986 -38.5983 -3.81186 0.111246 23.1672 -0.0200961 0.830043 -0.136757 4.89127
